<svg xmlns="http://www.w3.org/2000/svg" viewBox="0 0 1050 990"><rect width="1050" height="990" fill="#f0ece4"/><g font-family="sans-serif" fill="#292824"><text x="20" y="30" font-size="20">D16｜部件拆解索引 5</text><text x="20" y="56" font-size="13">實際模型網格投影 · 尺寸為組裝座標 X/Y/Z 外形包絡，非開料／榫槽尺寸</text><g><rect x="15" y="80" width="330" height="290" rx="5" fill="white" stroke="#ccc"/><text x="29" y="105" font-size="16">P037 · 胡桃木</text><polygon points="40.00,289.99 43.82,287.11 49.31,289.12 45.49,292.00" fill="#826041" stroke="#574c3d" stroke-width=".22"/><polygon points="49.31,289.12 43.82,287.11 43.82,132.00 49.31,134.01" fill="#826041" stroke="#574c3d" stroke-width=".22"/><polygon points="43.82,287.11 40.00,289.99 40.00,134.88 43.82,132.00" fill="#826041" stroke="#574c3d" stroke-width=".22"/><polygon points="40.00,289.99 45.49,292.00 45.49,136.89 40.00,134.88" fill="#826041" stroke="#574c3d" stroke-width=".22"/><polygon points="45.49,292.00 49.31,289.12 49.31,134.01 45.49,136.89" fill="#826041" stroke="#574c3d" stroke-width=".22"/><polygon points="40.00,134.88 45.49,136.89 49.31,134.01 43.82,132.00" fill="#826041" stroke="#574c3d" stroke-width=".22"/><text x="27" y="320" font-size="11">POST_11_corner_0_0</text><text x="27" y="343" font-size="13">X 12.0 × Y 12.0 × Z 278 mm</text></g><g><rect x="360" y="80" width="330" height="290" rx="5" fill="white" stroke="#ccc"/><text x="374" y="105" font-size="16">P038 · 胡桃木</text><polygon points="385.00,289.99 388.82,287.11 394.31,289.12 390.49,292.00" fill="#826041" stroke="#574c3d" stroke-width=".22"/><polygon points="394.31,289.12 388.82,287.11 388.82,132.00 394.31,134.01" fill="#826041" stroke="#574c3d" stroke-width=".22"/><polygon points="388.82,287.11 385.00,289.99 385.00,134.88 388.82,132.00" fill="#826041" stroke="#574c3d" stroke-width=".22"/><polygon points="385.00,289.99 390.49,292.00 390.49,136.89 385.00,134.88" fill="#826041" stroke="#574c3d" stroke-width=".22"/><polygon points="390.49,292.00 394.31,289.12 394.31,134.01 390.49,136.89" fill="#826041" stroke="#574c3d" stroke-width=".22"/><polygon points="385.00,134.88 390.49,136.89 394.31,134.01 388.82,132.00" fill="#826041" stroke="#574c3d" stroke-width=".22"/><text x="372" y="320" font-size="11">POST_11_corner_0_28.0</text><text x="372" y="343" font-size="13">X 12.0 × Y 12.0 × Z 278 mm</text></g><g><rect x="705" y="80" width="330" height="290" rx="5" fill="white" stroke="#ccc"/><text x="719" y="105" font-size="16">P039 · 胡桃木</text><polygon points="730.00,289.99 733.82,287.11 739.31,289.12 735.49,292.00" fill="#826041" stroke="#574c3d" stroke-width=".22"/><polygon points="739.31,289.12 733.82,287.11 733.82,132.00 739.31,134.01" fill="#826041" stroke="#574c3d" stroke-width=".22"/><polygon points="733.82,287.11 730.00,289.99 730.00,134.88 733.82,132.00" fill="#826041" stroke="#574c3d" stroke-width=".22"/><polygon points="730.00,289.99 735.49,292.00 735.49,136.89 730.00,134.88" fill="#826041" stroke="#574c3d" stroke-width=".22"/><polygon points="735.49,292.00 739.31,289.12 739.31,134.01 735.49,136.89" fill="#826041" stroke="#574c3d" stroke-width=".22"/><polygon points="730.00,134.88 735.49,136.89 739.31,134.01 733.82,132.00" fill="#826041" stroke="#574c3d" stroke-width=".22"/><text x="717" y="320" font-size="11">POST_11_corner_28.0_0</text><text x="717" y="343" font-size="13">X 12.0 × Y 12.0 × Z 278 mm</text></g><g><rect x="15" y="380" width="330" height="290" rx="5" fill="white" stroke="#ccc"/><text x="29" y="405" font-size="16">P040 · 胡桃木</text><polygon points="40.00,589.99 43.82,587.11 49.31,589.12 45.49,592.00" fill="#826041" stroke="#574c3d" stroke-width=".22"/><polygon points="49.31,589.12 43.82,587.11 43.82,432.00 49.31,434.01" fill="#826041" stroke="#574c3d" stroke-width=".22"/><polygon points="43.82,587.11 40.00,589.99 40.00,434.88 43.82,432.00" fill="#826041" stroke="#574c3d" stroke-width=".22"/><polygon points="40.00,589.99 45.49,592.00 45.49,436.89 40.00,434.88" fill="#826041" stroke="#574c3d" stroke-width=".22"/><polygon points="45.49,592.00 49.31,589.12 49.31,434.01 45.49,436.89" fill="#826041" stroke="#574c3d" stroke-width=".22"/><polygon points="40.00,434.88 45.49,436.89 49.31,434.01 43.82,432.00" fill="#826041" stroke="#574c3d" stroke-width=".22"/><text x="27" y="620" font-size="11">POST_11_corner_28.0_28.0</text><text x="27" y="643" font-size="13">X 12.0 × Y 12.0 × Z 278 mm</text></g><g><rect x="360" y="380" width="330" height="290" rx="5" fill="white" stroke="#ccc"/><text x="374" y="405" font-size="16">P041 · 楓木</text><polygon points="385.00,590.00 390.06,586.19 395.52,588.18 390.46,592.00" fill="#dec79e" stroke="#574c3d" stroke-width=".22"/><polygon points="395.52,588.18 390.06,586.19 390.06,432.00 395.52,434.00" fill="#dec79e" stroke="#574c3d" stroke-width=".22"/><polygon points="390.06,586.19 385.00,590.00 385.00,435.82 390.06,432.00" fill="#dec79e" stroke="#574c3d" stroke-width=".22"/><polygon points="390.46,592.00 395.52,588.18 395.52,434.00 390.46,437.81" fill="#dec79e" stroke="#574c3d" stroke-width=".22"/><polygon points="385.00,590.00 390.46,592.00 390.46,437.81 385.00,435.82" fill="#dec79e" stroke="#574c3d" stroke-width=".22"/><polygon points="385.00,435.82 390.46,437.81 395.52,434.00 390.06,432.00" fill="#dec79e" stroke="#574c3d" stroke-width=".22"/><text x="372" y="620" font-size="11">POST_11_maple_x0</text><text x="372" y="643" font-size="13">X 12.0 × Y 16.0 × Z 278 mm</text></g><g><rect x="705" y="380" width="330" height="290" rx="5" fill="white" stroke="#ccc"/><text x="719" y="405" font-size="16">P042 · 楓木</text><polygon points="730.00,590.00 735.06,586.19 740.52,588.18 735.46,592.00" fill="#dec79e" stroke="#574c3d" stroke-width=".22"/><polygon points="740.52,588.18 735.06,586.19 735.06,432.00 740.52,434.00" fill="#dec79e" stroke="#574c3d" stroke-width=".22"/><polygon points="735.06,586.19 730.00,590.00 730.00,435.82 735.06,432.00" fill="#dec79e" stroke="#574c3d" stroke-width=".22"/><polygon points="735.46,592.00 740.52,588.18 740.52,434.00 735.46,437.81" fill="#dec79e" stroke="#574c3d" stroke-width=".22"/><polygon points="730.00,590.00 735.46,592.00 735.46,437.81 730.00,435.82" fill="#dec79e" stroke="#574c3d" stroke-width=".22"/><polygon points="730.00,435.82 735.46,437.81 740.52,434.00 735.06,432.00" fill="#dec79e" stroke="#574c3d" stroke-width=".22"/><text x="717" y="620" font-size="11">POST_11_maple_x28.0</text><text x="717" y="643" font-size="13">X 12.0 × Y 16.0 × Z 278 mm</text></g><g><rect x="15" y="680" width="330" height="290" rx="5" fill="white" stroke="#ccc"/><text x="29" y="705" font-size="16">P043 · 楓木</text><polygon points="40.00,889.33 43.80,886.47 51.09,889.13 47.29,892.00" fill="#dec79e" stroke="#574c3d" stroke-width=".22"/><polygon points="43.80,886.47 40.00,889.33 40.00,734.87 43.80,732.00" fill="#dec79e" stroke="#574c3d" stroke-width=".22"/><polygon points="51.09,889.13 43.80,886.47 43.80,732.00 51.09,734.67" fill="#dec79e" stroke="#574c3d" stroke-width=".22"/><polygon points="40.00,889.33 47.29,892.00 47.29,737.53 40.00,734.87" fill="#dec79e" stroke="#574c3d" stroke-width=".22"/><polygon points="47.29,892.00 51.09,889.13 51.09,734.67 47.29,737.53" fill="#dec79e" stroke="#574c3d" stroke-width=".22"/><polygon points="40.00,734.87 47.29,737.53 51.09,734.67 43.80,732.00" fill="#dec79e" stroke="#574c3d" stroke-width=".22"/><text x="27" y="920" font-size="11">POST_11_maple_y0</text><text x="27" y="943" font-size="13">X 16.0 × Y 12.0 × Z 278 mm</text></g><g><rect x="360" y="680" width="330" height="290" rx="5" fill="white" stroke="#ccc"/><text x="374" y="705" font-size="16">P044 · 楓木</text><polygon points="385.00,889.33 388.80,886.47 396.09,889.13 392.29,892.00" fill="#dec79e" stroke="#574c3d" stroke-width=".22"/><polygon points="388.80,886.47 385.00,889.33 385.00,734.87 388.80,732.00" fill="#dec79e" stroke="#574c3d" stroke-width=".22"/><polygon points="396.09,889.13 388.80,886.47 388.80,732.00 396.09,734.67" fill="#dec79e" stroke="#574c3d" stroke-width=".22"/><polygon points="385.00,889.33 392.29,892.00 392.29,737.53 385.00,734.87" fill="#dec79e" stroke="#574c3d" stroke-width=".22"/><polygon points="392.29,892.00 396.09,889.13 396.09,734.67 392.29,737.53" fill="#dec79e" stroke="#574c3d" stroke-width=".22"/><polygon points="385.00,734.87 392.29,737.53 396.09,734.67 388.80,732.00" fill="#dec79e" stroke="#574c3d" stroke-width=".22"/><text x="372" y="920" font-size="11">POST_11_maple_y28.0</text><text x="372" y="943" font-size="13">X 16.0 × Y 12.0 × Z 278 mm</text></g><g><rect x="705" y="680" width="330" height="290" rx="5" fill="white" stroke="#ccc"/><text x="719" y="705" font-size="16">P045 · 胡桃木</text><polygon points="737.17,744.58 730.00,749.99 730.00,737.41 737.17,732.00" fill="#826041" stroke="#574c3d" stroke-width=".22"/><polygon points="730.00,749.99 737.17,744.58 995.00,838.91 987.83,844.31" fill="#826041" stroke="#574c3d" stroke-width=".22"/><polygon points="995.00,838.91 737.17,744.58 737.17,732.00 995.00,826.33" fill="#826041" stroke="#574c3d" stroke-width=".22"/><polygon points="730.00,737.41 987.83,831.74 995.00,826.33 737.17,732.00" fill="#826041" stroke="#574c3d" stroke-width=".22"/><polygon points="730.00,749.99 987.83,844.31 987.83,831.74 730.00,737.41" fill="#826041" stroke="#574c3d" stroke-width=".22"/><polygon points="987.83,844.31 995.00,838.91 995.00,826.33 987.83,831.74" fill="#826041" stroke="#574c3d" stroke-width=".22"/><text x="717" y="920" font-size="11">RAIL_FB_300_0</text><text x="717" y="943" font-size="13">X 625.0 × Y 25.0 × Z 25.0 mm</text></g></g></svg>