<svg xmlns="http://www.w3.org/2000/svg" viewBox="0 0 1050 990"><rect width="1050" height="990" fill="#f0ece4"/><g font-family="sans-serif" fill="#292824"><text x="20" y="30" font-size="20">D16｜部件拆解索引 1</text><text x="20" y="56" font-size="13">實際模型網格投影 · 尺寸為組裝座標 X/Y/Z 外形包絡，非開料／榫槽尺寸</text><g><rect x="15" y="80" width="330" height="290" rx="5" fill="white" stroke="#ccc"/><text x="29" y="105" font-size="16">P001 · 胡桃木</text><polygon points="40.00,290.73 43.22,288.29 46.70,289.57 43.48,292.00" fill="#826041" stroke="#574c3d" stroke-width=".22"/><polygon points="46.70,289.57 43.22,288.29 43.22,132.00 46.70,133.27" fill="#826041" stroke="#574c3d" stroke-width=".22"/><polygon points="43.22,288.29 40.00,290.73 40.00,134.43 43.22,132.00" fill="#826041" stroke="#574c3d" stroke-width=".22"/><polygon points="43.48,292.00 46.70,289.57 46.70,133.27 43.48,135.71" fill="#826041" stroke="#574c3d" stroke-width=".22"/><polygon points="40.00,290.73 43.48,292.00 43.48,135.71 40.00,134.43" fill="#826041" stroke="#574c3d" stroke-width=".22"/><polygon points="40.00,134.43 43.48,135.71 46.70,133.27 43.22,132.00" fill="#826041" stroke="#574c3d" stroke-width=".22"/><text x="27" y="320" font-size="11">POST_00_upper</text><text x="27" y="343" font-size="13">X 30.0 × Y 40.0 × Z 1105.0 mm</text></g><g><rect x="360" y="80" width="330" height="290" rx="5" fill="white" stroke="#ccc"/><text x="374" y="105" font-size="16">P002 · 胡桃木</text><polygon points="558.75,238.25 456.25,200.75 456.25,132.00 558.75,169.50" fill="#826041" stroke="#574c3d" stroke-width=".22"/><polygon points="456.25,200.75 385.00,254.50 385.00,185.75 456.25,132.00" fill="#826041" stroke="#574c3d" stroke-width=".22"/><polygon points="385.00,254.50 456.25,200.75 558.75,238.25 487.50,292.00" fill="#826041" stroke="#574c3d" stroke-width=".22"/><polygon points="385.00,185.75 487.50,223.25 558.75,169.50 456.25,132.00" fill="#826041" stroke="#574c3d" stroke-width=".22"/><polygon points="385.00,254.50 487.50,292.00 487.50,223.25 385.00,185.75" fill="#826041" stroke="#574c3d" stroke-width=".22"/><polygon points="487.50,292.00 558.75,238.25 558.75,169.50 487.50,223.25" fill="#826041" stroke="#574c3d" stroke-width=".22"/><text x="372" y="320" font-size="11">POST_00_shoe</text><text x="372" y="343" font-size="13">X 40.0 × Y 40.0 × Z 22 mm</text></g><g><rect x="705" y="80" width="330" height="290" rx="5" fill="white" stroke="#ccc"/><text x="719" y="105" font-size="16">P003 · 楓木</text><polygon points="730.00,289.35 735.04,285.55 742.28,288.20 737.25,292.00" fill="#dec79e" stroke="#574c3d" stroke-width=".22"/><polygon points="742.28,288.20 735.04,285.55 735.04,132.00 742.28,134.65" fill="#dec79e" stroke="#574c3d" stroke-width=".22"/><polygon points="735.04,285.55 730.00,289.35 730.00,135.80 735.04,132.00" fill="#dec79e" stroke="#574c3d" stroke-width=".22"/><polygon points="730.00,289.35 737.25,292.00 737.25,138.45 730.00,135.80" fill="#dec79e" stroke="#574c3d" stroke-width=".22"/><polygon points="737.25,292.00 742.28,288.20 742.28,134.65 737.25,138.45" fill="#dec79e" stroke="#574c3d" stroke-width=".22"/><polygon points="730.00,135.80 737.25,138.45 742.28,134.65 735.04,132.00" fill="#dec79e" stroke="#574c3d" stroke-width=".22"/><text x="717" y="320" font-size="11">POST_00_core</text><text x="717" y="343" font-size="13">X 16.0 × Y 16.0 × Z 278 mm</text></g><g><rect x="15" y="380" width="330" height="290" rx="5" fill="white" stroke="#ccc"/><text x="29" y="405" font-size="16">P004 · 胡桃木</text><polygon points="40.00,589.99 43.82,587.11 49.31,589.12 45.49,592.00" fill="#826041" stroke="#574c3d" stroke-width=".22"/><polygon points="49.31,589.12 43.82,587.11 43.82,432.00 49.31,434.01" fill="#826041" stroke="#574c3d" stroke-width=".22"/><polygon points="43.82,587.11 40.00,589.99 40.00,434.88 43.82,432.00" fill="#826041" stroke="#574c3d" stroke-width=".22"/><polygon points="40.00,589.99 45.49,592.00 45.49,436.89 40.00,434.88" fill="#826041" stroke="#574c3d" stroke-width=".22"/><polygon points="45.49,592.00 49.31,589.12 49.31,434.01 45.49,436.89" fill="#826041" stroke="#574c3d" stroke-width=".22"/><polygon points="40.00,434.88 45.49,436.89 49.31,434.01 43.82,432.00" fill="#826041" stroke="#574c3d" stroke-width=".22"/><text x="27" y="620" font-size="11">POST_00_corner_0_0</text><text x="27" y="643" font-size="13">X 12.0 × Y 12.0 × Z 278 mm</text></g><g><rect x="360" y="380" width="330" height="290" rx="5" fill="white" stroke="#ccc"/><text x="374" y="405" font-size="16">P005 · 胡桃木</text><polygon points="385.00,589.99 388.82,587.11 394.31,589.12 390.49,592.00" fill="#826041" stroke="#574c3d" stroke-width=".22"/><polygon points="394.31,589.12 388.82,587.11 388.82,432.00 394.31,434.01" fill="#826041" stroke="#574c3d" stroke-width=".22"/><polygon points="388.82,587.11 385.00,589.99 385.00,434.88 388.82,432.00" fill="#826041" stroke="#574c3d" stroke-width=".22"/><polygon points="385.00,589.99 390.49,592.00 390.49,436.89 385.00,434.88" fill="#826041" stroke="#574c3d" stroke-width=".22"/><polygon points="390.49,592.00 394.31,589.12 394.31,434.01 390.49,436.89" fill="#826041" stroke="#574c3d" stroke-width=".22"/><polygon points="385.00,434.88 390.49,436.89 394.31,434.01 388.82,432.00" fill="#826041" stroke="#574c3d" stroke-width=".22"/><text x="372" y="620" font-size="11">POST_00_corner_0_28.0</text><text x="372" y="643" font-size="13">X 12.0 × Y 12.0 × Z 278 mm</text></g><g><rect x="705" y="380" width="330" height="290" rx="5" fill="white" stroke="#ccc"/><text x="719" y="405" font-size="16">P006 · 胡桃木</text><polygon points="730.00,589.99 733.82,587.11 739.31,589.12 735.49,592.00" fill="#826041" stroke="#574c3d" stroke-width=".22"/><polygon points="739.31,589.12 733.82,587.11 733.82,432.00 739.31,434.01" fill="#826041" stroke="#574c3d" stroke-width=".22"/><polygon points="733.82,587.11 730.00,589.99 730.00,434.88 733.82,432.00" fill="#826041" stroke="#574c3d" stroke-width=".22"/><polygon points="730.00,589.99 735.49,592.00 735.49,436.89 730.00,434.88" fill="#826041" stroke="#574c3d" stroke-width=".22"/><polygon points="735.49,592.00 739.31,589.12 739.31,434.01 735.49,436.89" fill="#826041" stroke="#574c3d" stroke-width=".22"/><polygon points="730.00,434.88 735.49,436.89 739.31,434.01 733.82,432.00" fill="#826041" stroke="#574c3d" stroke-width=".22"/><text x="717" y="620" font-size="11">POST_00_corner_28.0_0</text><text x="717" y="643" font-size="13">X 12.0 × Y 12.0 × Z 278 mm</text></g><g><rect x="15" y="680" width="330" height="290" rx="5" fill="white" stroke="#ccc"/><text x="29" y="705" font-size="16">P007 · 胡桃木</text><polygon points="40.00,889.99 43.82,887.11 49.31,889.12 45.49,892.00" fill="#826041" stroke="#574c3d" stroke-width=".22"/><polygon points="49.31,889.12 43.82,887.11 43.82,732.00 49.31,734.01" fill="#826041" stroke="#574c3d" stroke-width=".22"/><polygon points="43.82,887.11 40.00,889.99 40.00,734.88 43.82,732.00" fill="#826041" stroke="#574c3d" stroke-width=".22"/><polygon points="40.00,889.99 45.49,892.00 45.49,736.89 40.00,734.88" fill="#826041" stroke="#574c3d" stroke-width=".22"/><polygon points="45.49,892.00 49.31,889.12 49.31,734.01 45.49,736.89" fill="#826041" stroke="#574c3d" stroke-width=".22"/><polygon points="40.00,734.88 45.49,736.89 49.31,734.01 43.82,732.00" fill="#826041" stroke="#574c3d" stroke-width=".22"/><text x="27" y="920" font-size="11">POST_00_corner_28.0_28.0</text><text x="27" y="943" font-size="13">X 12.0 × Y 12.0 × Z 278 mm</text></g><g><rect x="360" y="680" width="330" height="290" rx="5" fill="white" stroke="#ccc"/><text x="374" y="705" font-size="16">P008 · 楓木</text><polygon points="385.00,890.00 390.06,886.19 395.52,888.18 390.46,892.00" fill="#dec79e" stroke="#574c3d" stroke-width=".22"/><polygon points="395.52,888.18 390.06,886.19 390.06,732.00 395.52,734.00" fill="#dec79e" stroke="#574c3d" stroke-width=".22"/><polygon points="390.06,886.19 385.00,890.00 385.00,735.82 390.06,732.00" fill="#dec79e" stroke="#574c3d" stroke-width=".22"/><polygon points="390.46,892.00 395.52,888.18 395.52,734.00 390.46,737.81" fill="#dec79e" stroke="#574c3d" stroke-width=".22"/><polygon points="385.00,890.00 390.46,892.00 390.46,737.81 385.00,735.82" fill="#dec79e" stroke="#574c3d" stroke-width=".22"/><polygon points="385.00,735.82 390.46,737.81 395.52,734.00 390.06,732.00" fill="#dec79e" stroke="#574c3d" stroke-width=".22"/><text x="372" y="920" font-size="11">POST_00_maple_x0</text><text x="372" y="943" font-size="13">X 12.0 × Y 16.0 × Z 278 mm</text></g><g><rect x="705" y="680" width="330" height="290" rx="5" fill="white" stroke="#ccc"/><text x="719" y="705" font-size="16">P009 · 楓木</text><polygon points="730.00,890.00 735.06,886.19 740.52,888.18 735.46,892.00" fill="#dec79e" stroke="#574c3d" stroke-width=".22"/><polygon points="740.52,888.18 735.06,886.19 735.06,732.00 740.52,734.00" fill="#dec79e" stroke="#574c3d" stroke-width=".22"/><polygon points="735.06,886.19 730.00,890.00 730.00,735.82 735.06,732.00" fill="#dec79e" stroke="#574c3d" stroke-width=".22"/><polygon points="735.46,892.00 740.52,888.18 740.52,734.00 735.46,737.81" fill="#dec79e" stroke="#574c3d" stroke-width=".22"/><polygon points="730.00,890.00 735.46,892.00 735.46,737.81 730.00,735.82" fill="#dec79e" stroke="#574c3d" stroke-width=".22"/><polygon points="730.00,735.82 735.46,737.81 740.52,734.00 735.06,732.00" fill="#dec79e" stroke="#574c3d" stroke-width=".22"/><text x="717" y="920" font-size="11">POST_00_maple_x28.0</text><text x="717" y="943" font-size="13">X 12.0 × Y 16.0 × Z 278 mm</text></g></g></svg>